<svg width="30" height="30" viewBox="0 0 30 30" fill="none" xmlns="http://www.w3.org/2000/svg">
<path d="M8.125 19.375V10.625H13.125" stroke="white" stroke-width="2" stroke-linecap="round" stroke-linejoin="round"/>
<path d="M8.125 15H12.8125" stroke="white" stroke-width="2" stroke-linecap="round" stroke-linejoin="round"/>
<path d="M8.125 19.375H12.8125" stroke="white" stroke-width="2" stroke-linecap="round" stroke-linejoin="round"/>
<path d="M16.25 19.375V11.875" stroke="white" stroke-width="2" stroke-linecap="round" stroke-linejoin="round"/>
<path d="M16.25 19.375V15.3125C16.25 13.7592 17.5092 12.5 19.0625 12.5C20.6158 12.5 21.875 13.7592 21.875 15.3125V19.375" stroke="white" stroke-width="2" stroke-linecap="round" stroke-linejoin="round"/>
<path d="M24.375 3.75H5.625C4.58947 3.75 3.75 4.58947 3.75 5.625V24.375C3.75 25.4105 4.58947 26.25 5.625 26.25H24.375C25.4105 26.25 26.25 25.4105 26.25 24.375V5.625C26.25 4.58947 25.4105 3.75 24.375 3.75Z" stroke="white" stroke-width="2" stroke-linecap="round" stroke-linejoin="round"/>
</svg>
