<svg width="40" height="46" viewBox="0 0 40 46" fill="none" xmlns="http://www.w3.org/2000/svg">
<path fill-rule="evenodd" clip-rule="evenodd" d="M20 46L40 34.3614V11.6386L20 0L0 11.9157V34.3614L20 46ZM29.5775 37.1325L20 42.6747L10.4225 37.1325L13.8028 34.9157L20 38.5181L25.9155 34.9157L29.5775 37.1325ZM30.9859 26.3253V34.6386L27.3239 32.4217V28.5422L30.9859 26.3253ZM24.507 32.6988L20 35.1928L15.2113 32.6988V30.2048L20 32.6988L24.507 30.2048V32.6988ZM9.01408 34.6386L12.3944 32.4217V28.5422L9.01408 26.3253V34.6386ZM2.8169 32.9759L6.19718 34.9157V21.3373L20 29.3735L33.8028 21.3373V34.9157L37.1831 32.9759V15.241L20 24.9398L2.8169 15.241V32.9759ZM36.0563 12.747L20 21.6145L16.6197 19.6747L30.1408 12.4699L26.4789 10.5301L13.5211 18.012L4.22535 12.747L20 3.3253L23.3803 5.26506L10.1408 12.747L13.5211 14.6867L26.4789 7.20482L36.0563 12.747Z" fill="white"/>
</svg>
