<svg width="1207" height="1196" viewBox="0 0 1207 1196" fill="none" xmlns="http://www.w3.org/2000/svg">
<path fill-rule="evenodd" clip-rule="evenodd" d="M675.5 1196L1351 802.819V35.1807L675.5 -358L0 44.5421V802.819L675.5 1196ZM998.979 896.434L675.5 1083.66L352.021 896.434L466.19 821.542L675.5 943.241L875.296 821.542L998.979 896.434ZM1046.55 531.337V812.181L922.866 737.289V606.229L1046.55 531.337ZM827.725 746.651L675.5 830.904L513.761 746.651V662.398L675.5 746.651L827.725 662.398V746.651ZM304.451 812.181L418.62 737.289V606.229L304.451 531.337V812.181ZM95.1408 756.012L209.31 821.542V362.831L675.5 634.313L1141.69 362.831V821.542L1255.86 756.012V156.88L675.5 484.53L95.1408 156.88V756.012ZM1217.8 72.6265L675.5 372.193L561.331 306.663L1018.01 63.265L894.324 -2.26508L456.676 250.494L142.711 72.6265L675.5 -245.663L789.669 -180.133L342.507 72.6265L456.676 138.157L894.324 -114.602L1217.8 72.6265Z" fill="url(#paint0_linear_23_171)"/>
<defs>
<linearGradient id="paint0_linear_23_171" x1="1213" y1="67.5" x2="429" y2="556.5" gradientUnits="userSpaceOnUse">
<stop stop-color="white" stop-opacity="0.01"/>
<stop offset="1" stop-opacity="0.05"/>
</linearGradient>
</defs>
</svg>
