<svg width="25" height="25" viewBox="0 0 25 25" fill="none" xmlns="http://www.w3.org/2000/svg">
<path d="M13.1879 25C12.4733 24.9997 11.7599 24.9413 11.0547 24.8254C7.60554 24.2577 4.52201 22.3404 2.48138 19.4944C0.440761 16.6484 -0.390093 13.1065 0.171305 9.64669C0.485453 7.67704 1.24258 5.80495 2.38529 4.17232C3.528 2.53969 5.02632 1.18936 6.76667 0.223681C7.06029 0.0591538 7.39485 -0.017339 7.73056 0.00330012C8.06627 0.0239392 8.38901 0.140842 8.66039 0.340104C8.93778 0.530445 9.15404 0.797526 9.28285 1.10886C9.41166 1.42019 9.44748 1.76236 9.38595 2.09373C8.88245 4.77218 9.30217 7.63022 10.6613 9.99054C12.0205 12.3509 14.1783 14.1444 16.7432 15.0458C18.7184 15.7333 20.8434 15.8666 22.8887 15.4315C23.2123 15.3678 23.5473 15.396 23.8557 15.513C24.1642 15.63 24.434 15.831 24.6347 16.0935C24.8353 16.356 24.9589 16.6695 24.9914 16.9987C25.0239 17.3278 24.9641 17.6595 24.8187 17.9564C23.6996 20.0782 22.026 21.8547 19.9771 23.0955C17.9283 24.3363 15.5814 24.9946 13.1879 25ZM7.55028 1.86816C6.16249 2.65732 4.95584 3.73055 4.00877 5.01808C3.06171 6.30561 2.39544 7.77861 2.05327 9.34132C1.7111 10.904 1.7007 12.5215 2.02273 14.0885C2.34477 15.6555 2.99204 17.137 3.92247 18.4366C5.0439 20.0087 6.54566 21.2689 8.28649 22.0986C10.0273 22.9282 11.95 23.3002 13.8736 23.1794C15.7973 23.0586 17.6587 22.449 19.2827 21.408C20.9067 20.367 22.24 18.9288 23.1571 17.2287C20.8234 17.6992 18.4068 17.5385 16.1555 16.7631C13.1848 15.7185 10.6847 13.6429 9.10656 10.9113C7.52844 8.17975 6.97645 4.97222 7.55028 1.86816Z" fill="white"/>
</svg>
